<svg width="25" height="24" viewBox="0 0 25 24" fill="none" xmlns="http://www.w3.org/2000/svg">
<g clip-path="url(#clip0_2548_2870)">
<path d="M3.81702 5.94785C3.81702 5.91563 3.81702 5.85762 3.81702 5.8125C3.81702 5.22598 4.23596 4.69746 4.94495 4.69746C5.58948 4.69746 6.07288 5.16152 6.07288 5.75449C6.07288 6.4248 5.5637 6.95977 5.10608 7.43027L1.94788 10.698V12H8.29006V10.3242H4.80959V10.2275L6.58206 8.33906C7.30393 7.57852 8.15471 6.82441 8.15471 5.5418C8.15471 4.12383 6.91077 3.04746 4.98362 3.04746C2.79866 3.04746 1.82542 4.48477 1.82542 5.83184V5.94785H3.81702ZM12.6987 3.20215C11.6158 5.05195 10.4815 6.9082 9.50178 8.80313V10.4918H13.7428V12H15.7215V10.4918H16.7463V8.83535H15.7215V3.20215H12.6987ZM11.3451 8.83535V8.79023C12.0541 7.37871 12.8469 6.03164 13.6461 4.72324H13.7428V8.83535H11.3451Z" fill="#A6B9C6"/>
<path d="M19.1627 15.668V16.8672H21.6744V16.9219L19.4518 21H21.0729L23.2096 16.8828V15.668H19.1627Z" fill="#A6B9C6"/>
<path d="M15.0247 18.9628L21.4127 9.42997L19.6799 8.86353L13.2919 18.3964L15.0247 18.9628Z" fill="#A6B9C6"/>
</g>
<defs>
<clipPath id="clip0_2548_2870">
<rect width="24" height="24" fill="white" transform="translate(0.666626)"/>
</clipPath>
</defs>
</svg>
