<svg width="25" height="24" viewBox="0 0 25 24" fill="none" xmlns="http://www.w3.org/2000/svg">
<path fill-rule="evenodd" clip-rule="evenodd" d="M20.0404 4.29289C20.4309 4.68342 20.4309 5.31658 20.0404 5.70711L6.04042 19.7071C5.6499 20.0976 5.01673 20.0976 4.62621 19.7071C4.23568 19.3166 4.23568 18.6834 4.62621 18.2929L18.6262 4.29289C19.0167 3.90237 19.6499 3.90237 20.0404 4.29289Z" fill="#A6B9C6"/>
<path fill-rule="evenodd" clip-rule="evenodd" d="M6.83331 5C6.00489 5 5.33331 5.67157 5.33331 6.5C5.33331 7.32843 6.00489 8 6.83331 8C7.66174 8 8.33331 7.32843 8.33331 6.5C8.33331 5.67157 7.66174 5 6.83331 5ZM3.33331 6.5C3.33331 4.567 4.90032 3 6.83331 3C8.76631 3 10.3333 4.567 10.3333 6.5C10.3333 8.433 8.76631 10 6.83331 10C4.90032 10 3.33331 8.433 3.33331 6.5Z" fill="#A6B9C6"/>
<path fill-rule="evenodd" clip-rule="evenodd" d="M17.8333 16C17.0049 16 16.3333 16.6716 16.3333 17.5C16.3333 18.3284 17.0049 19 17.8333 19C18.6617 19 19.3333 18.3284 19.3333 17.5C19.3333 16.6716 18.6617 16 17.8333 16ZM14.3333 17.5C14.3333 15.567 15.9003 14 17.8333 14C19.7663 14 21.3333 15.567 21.3333 17.5C21.3333 19.433 19.7663 21 17.8333 21C15.9003 21 14.3333 19.433 14.3333 17.5Z" fill="#A6B9C6"/>
</svg>
